Coordinates
version=1
nRows=22
nColumns=32
inDegrees=yes

Units are S.I. units (second, meters, Newtons, ...)
If the header above contains a line with 'inDegrees', this indicates whether rotational values are in degrees (yes) or radians (no).

endheader
time	pelvis_tilt	pelvis_list	pelvis_rotation	pelvis_tx	pelvis_ty	pelvis_tz	hip_flexion_r	hip_adduction_r	hip_rotation_r	knee_angle_r	knee_adduction_r	med_cond_adduction_r	lat_cond_adduction_r	patella_r_constrained_knee_angle	ankle_angle_r	subtalar_angle_r	mtp_angle_r	hip_flexion_l	hip_adduction_l	hip_rotation_l	knee_angle_l	knee_adduction_l	med_cond_adduction_l	lat_cond_adduction_l	patella_l_constrained_knee_angle	ankle_angle_l	subtalar_angle_l	mtp_angle_l	lumbar_extension	lumbar_bending	lumbar_rotation
      0.44500000	      3.48923029	    -21.64828264	     -1.80408986	     -0.11729677	      0.93354719	      0.28919728	     -0.43498751	     22.64995730	    -21.92006068	     -8.99486033	     -0.00000000	     -0.00000000	      0.00000000	     -0.15698993	     -3.48096145	     18.04456199	     -0.00000000	     19.13419128	    -49.47745224	    -23.42671354	    -72.83081408	      0.00000000	     -0.00000000	      0.00000000	     -1.27113750	     -4.73569014	     19.29305113	     -0.00000000	    -18.32876226	     23.24284460	      2.36659889
      0.45000000	      3.77486429	    -21.47767120	     -2.36936312	     -0.11068529	      0.93491170	      0.29000749	     -1.70421757	     22.54275140	    -20.99172937	     -8.44554474	     -0.00000000	     -0.00000000	      0.00000000	     -0.14740256	     -3.56944561	     18.15186119	      0.00000000	     18.70268438	    -49.41038565	    -24.74070470	    -72.02752504	     -0.00000000	     -0.00000000	      0.00000000	     -1.25711746	     -4.19429385	     19.37293019	     -0.00000000	    -18.85279094	     22.77463259	      2.79860088
      0.45500000	      3.61173129	    -21.81406182	     -1.93569650	     -0.10430937	      0.93447716	      0.28894738	     -2.29140889	     23.00370855	    -20.95173897	     -7.58330209	      0.00000000	      0.00000000	     -0.00000000	     -0.13235359	     -3.72686091	     18.02064642	     -0.00000000	     20.86703986	    -49.39235183	    -23.39123140	    -71.73511027	      0.00000000	      0.00000000	     -0.00000000	     -1.25201386	     -3.56659145	     19.42553663	     -0.00000000	    -18.49739816	     23.32656818	      2.09397768
      0.46000000	      3.72390240	    -21.80278388	     -2.17915370	     -0.09785091	      0.93511146	      0.28917476	     -3.28563687	     23.05703965	    -20.26662374	     -6.97838989	     -0.00000000	      0.00000000	     -0.00000000	     -0.12179588	     -3.78573035	     18.02472465	     -0.00000000	     21.29325072	    -49.31855326	    -23.83227273	    -71.01545846	      0.00000000	     -0.00000000	      0.00000000	     -1.23945357	     -3.15582536	     19.47738825	      0.00000000	    -18.71742638	     23.20794649	      2.22772195
      0.46500000	      3.83730929	    -21.80742341	     -2.38367077	     -0.09139230	      0.93566124	      0.28932048	     -4.27922717	     23.11821597	    -19.55225414	     -6.36043484	      0.00000000	     -0.00000000	      0.00000000	     -0.11101053	     -3.80275090	     17.97171874	     -0.00000000	     21.74084767	    -49.22907368	    -24.22005117	    -70.25890107	     -0.00000000	      0.00000000	     -0.00000000	     -1.22624915	     -2.71124690	     19.52253951	      0.00000000	    -18.93108634	     23.12576764	      2.35904095
      0.47000000	      3.90892582	    -21.81575958	     -2.54005662	     -0.08495867	      0.93603005	      0.28937565	     -5.17663903	     23.16105774	    -18.98245297	     -5.80821271	      0.00000000	     -0.00000000	      0.00000000	     -0.10137244	     -3.85337447	     17.96299665	     -0.00000000	     22.30826699	    -49.11828910	    -24.52921738	    -69.48731761	     -0.00000000	     -0.00000000	      0.00000000	     -1.21278248	     -2.33224483	     19.55791201	      0.00000000	    -19.06303745	     22.99200166	      2.19114012
      0.47500000	      4.19775328	    -21.60042535	     -3.02253054	     -0.07859283	      0.93713838	      0.29010223	     -6.40633386	     22.93175910	    -17.99911842	     -5.25141615	     -0.00000000	      0.00000000	     -0.00000000	     -0.09165450	     -3.96031664	     17.98217500	      0.00000000	     21.86039768	    -48.90004021	    -25.74966679	    -68.42063582	     -0.00000000	     -0.00000000	      0.00000000	     -1.19416537	     -1.99493724	     19.59380073	      0.00000000	    -19.60867525	     22.55358470	      2.84765767
      0.48000000	      4.09753415	    -21.76697120	     -2.94932367	     -0.07228078	      0.93686221	      0.28967908	     -7.01722758	     23.13590528	    -17.68850130	     -4.74183722	     -0.00000000	     -0.00000000	      0.00000000	     -0.08276067	     -3.97597408	     17.93344938	     -0.00000000	     23.11930483	    -48.78587902	    -25.34191494	    -67.71017334	     -0.00000000	     -0.00000000	      0.00000000	     -1.18176546	     -1.62946046	     19.61560762	      0.00000000	    -19.47501151	     22.71898536	      2.36194046
      0.48500000	      4.25880013	    -21.63023838	     -3.28194734	     -0.06598880	      0.93749031	      0.29007399	     -8.02077186	     22.96987375	    -16.84486174	     -4.25468912	      0.00000000	      0.00000000	     -0.00000000	     -0.07425833	     -3.97296805	     17.88825832	     -0.00000000	     23.10551259	    -48.54181811	    -26.14842960	    -66.65052448	      0.00000000	      0.00000000	     -0.00000000	     -1.16327110	     -1.36189234	     19.63978944	     -0.00000000	    -19.81660196	     22.41428025	      2.71053142
      0.49000000	      4.37513719	    -21.52538004	     -3.51594489	     -0.05976477	      0.93789568	      0.29028626	     -8.92061123	     22.83052235	    -16.14824739	     -3.79835039	     -0.00000000	     -0.00000000	      0.00000000	     -0.06629372	     -3.95114383	     17.83368205	      0.00000000	     23.30905661	    -48.25979201	    -26.70938517	    -65.59270748	      0.00000000	     -0.00000000	      0.00000000	     -1.14480871	     -1.08310229	     19.66020651	     -0.00000000	    -20.07299910	     22.15641249	      2.85516184
      0.49500000	      4.40395535	    -21.53327186	     -3.47208605	     -0.05363595	      0.93784700	      0.28993482	     -9.57158430	     22.80927065	    -15.95164517	     -3.47474715	      0.00000000	      0.00000000	     -0.00000000	     -0.06064578	     -3.87601906	     17.93723653	      0.00000000	     24.10316306	    -47.91742673	    -26.58801562	    -64.61263979	      0.00000000	     -0.00000000	      0.00000000	     -1.12770330	     -0.76343025	     19.67568070	     -0.00000000	    -20.15934274	     22.13854496	      2.63287069
      0.50000000	      4.53508761	    -21.38711882	     -3.67795477	     -0.04751673	      0.93820743	      0.29006135	    -10.42758762	     22.59974115	    -15.32902155	     -3.09196066	     -0.00000000	     -0.00000000	      0.00000000	     -0.05396489	     -3.82547548	     17.92586794	     -0.00000000	     24.23171850	    -47.53116246	    -27.15133044	    -63.42786016	      0.00000000	      0.00000000	     -0.00000000	     -1.10702500	     -0.51675904	     19.69095804	     -0.00000000	    -20.43923253	     21.83843208	      2.76495897
      0.50500000	      4.69010495	    -21.20667005	     -3.87191796	     -0.04147880	      0.93858856	      0.29017130	    -11.27248543	     22.33754875	    -14.75805853	     -2.75022144	      0.00000000	      0.00000000	     -0.00000000	     -0.04800042	     -3.74003327	     17.92038315	     -0.00000000	     24.28500711	    -47.07006173	    -27.72494881	    -62.15786425	      0.00000000	     -0.00000000	      0.00000000	     -1.08485939	     -0.30738107	     19.70517407	      0.00000000	    -20.76683169	     21.49614433	      2.88796039
      0.51000000	      4.67012915	    -21.20455746	     -3.86750553	     -0.03544318	      0.93833479	      0.28990085	    -11.87038625	     22.29988567	    -14.44311124	     -2.42438859	     -0.00000000	      0.00000000	     -0.00000000	     -0.04231356	     -3.63676280	     17.92333701	      0.00000000	     24.99725246	    -46.69388277	    -27.68272707	    -61.03032016	      0.00000000	      0.00000000	     -0.00000000	     -1.06518003	     -0.04745689	     19.71622811	     -0.00000000	    -20.82670345	     21.49051347	      2.86924837
      0.51500000	      5.15505029	    -20.64477190	     -4.24226089	     -0.02960087	      0.93962027	      0.29032978	    -12.95383880	     21.52633073	    -13.95677706	     -2.30649843	      0.00000000	     -0.00000000	      0.00000000	     -0.04025599	     -3.44427266	     18.18162043	     -0.00000000	     23.94235018	    -45.86006328	    -29.15084615	    -59.32252019	      0.00000000	     -0.00000000	      0.00000000	     -1.03537330	      0.06577444	     19.72665411	      0.00000000	    -21.62148800	     20.65601337	      3.60156192
      0.52000000	      4.74469805	    -21.05713339	     -4.04678693	     -0.02353199	      0.93812400	      0.28970180	    -13.17781252	     22.02077639	    -13.64814923	     -1.86374109	      0.00000000	     -0.00000000	      0.00000000	     -0.03252842	     -3.39902887	     17.96888713	      0.00000000	     25.76229630	    -45.83880376	    -28.18818728	    -58.45030840	     -0.00000000	      0.00000000	     -0.00000000	     -1.02015033	      0.32851441	     19.73594509	     -0.00000000	    -21.16600718	     21.16468943	      2.92711207
      0.52500000	      4.75641934	    -20.98921538	     -4.11218729	     -0.01760651	      0.93789795	      0.28956509	    -13.80768601	     21.89490148	    -13.22962570	     -1.55255565	     -0.00000000	     -0.00000000	      0.00000000	     -0.02709721	     -3.27374600	     17.91677956	      0.00000000	     26.17005973	    -45.38222006	    -28.38975955	    -57.08559189	     -0.00000000	      0.00000000	     -0.00000000	     -0.99633153	      0.42727489	     19.74468696	     -0.00000000	    -21.31173841	     20.96879447	      2.78794996
      0.53000000	      4.68033933	    -20.98374052	     -4.14957723	     -0.01176819	      0.93738265	      0.28933963	    -14.27261551	     21.83333449	    -12.98540961	     -1.35586711	      0.00000000	     -0.00000000	      0.00000000	     -0.02366435	     -3.09980063	     18.00608318	      0.00000000	     26.77378961	    -44.95796920	    -28.42697022	    -55.73443702	     -0.00000000	      0.00000000	     -0.00000000	     -0.97274943	      0.58155867	     19.75186764	      0.00000000	    -21.36105126	     20.93308541	      2.76842946
      0.53500000	      4.58779660	    -21.01713362	     -4.16607324	     -0.00590507	      0.93674407	      0.28909882	    -14.75152347	     21.82790577	    -12.68638462	     -1.10398502	     -0.00000000	     -0.00000000	      0.00000000	     -0.01926817	     -2.93447550	     17.99561716	      0.00000000	     27.40638873	    -44.56147629	    -28.42946415	    -54.35698403	     -0.00000000	      0.00000000	     -0.00000000	     -0.94870834	      0.69194906	     19.75889701	      0.00000000	    -21.38524722	     20.93143680	      2.70975692
      0.54000000	      4.39007073	    -21.12295486	     -4.25580750	     -0.00006076	      0.93586277	      0.28900996	    -15.16854820	     21.90696425	    -12.22010195	     -0.80183752	     -0.00000000	      0.00000000	     -0.00000000	     -0.01399470	     -2.82144046	     17.89986207	     -0.00000000	     28.15070537	    -44.28181310	    -28.41569702	    -52.98480588	     -0.00000000	      0.00000000	     -0.00000000	     -0.92475932	      0.75125783	     19.76613544	     -0.00000000	    -21.31914285	     20.94910776	      2.52001356
      0.54500000	      4.19339230	    -21.23808370	     -4.20555811	      0.00569951	      0.93486485	      0.28861043	    -15.47364809	     22.00344353	    -12.07469539	     -0.63348211	      0.00000000	      0.00000000	     -0.00000000	     -0.01105635	     -2.63515559	     17.93572195	      0.00000000	     29.01931814	    -43.89414551	    -28.18016391	    -51.58036038	     -0.00000000	      0.00000000	     -0.00000000	     -0.90024712	      0.80518631	     19.77176201	     -0.00000000	    -21.22763485	     21.08753053	      2.40626695
      0.55000000	      3.99033793	    -21.33821917	     -4.08803364	      0.01141649	      0.93376432	      0.28804642	    -15.71190653	     22.09014692	    -12.12695113	     -0.52752591	     -0.00000000	     -0.00000000	      0.00000000	     -0.00920706	     -2.41505463	     18.05511092	     -0.00000000	     29.91995583	    -43.41644833	    -27.83822320	    -50.11643594	      0.00000000	     -0.00000000	      0.00000000	     -0.87469682	      0.83445365	     19.77695504	      0.00000000	    -21.11473102	     21.22549385	      2.15755865
